<?xml version="1.0" standalone="no"?>
<!DOCTYPE svg PUBLIC "-//W3C//DTD SVG 20010904//EN"
 "http://www.w3.org/TR/2001/REC-SVG-20010904/DTD/svg10.dtd">
<svg version="1.0" xmlns="http://www.w3.org/2000/svg"
 width="834.000000pt" height="834.000000pt" viewBox="0 0 834.000000 834.000000"
 preserveAspectRatio="xMidYMid meet">
<metadata>
Created by potrace 1.14, written by Peter Selinger 2001-2017
</metadata>
<g transform="translate(0.000000,834.000000) scale(0.100000,-0.100000)"
fill="#000000" stroke="none">
<path d="M1260 4170 l0 -3340 985 0 985 0 0 1193 0 1192 309 -3 308 -3 493
-1189 493 -1190 1119 0 c615 0 1118 3 1118 8 0 4 -292 601 -649 1327 l-649
1320 46 26 c26 14 110 61 187 103 160 89 249 153 387 278 289 262 534 670 616
1023 69 297 70 712 2 1001 -137 586 -485 1029 -1030 1312 -209 109 -410 180
-648 228 -269 54 -247 54 -2234 54 l-1838 0 0 -3340z m3355 1858 c176 -60 339
-230 409 -427 30 -83 31 -92 31 -251 0 -155 -2 -170 -29 -254 -50 -153 -163
-297 -298 -379 -124 -75 -86 -71 -830 -75 l-668 -3 0 706 0 706 668 -3 c596
-3 672 -5 717 -20z"/>
</g>
</svg>
